<?xml version="1.0" encoding="UTF-8" standalone="yes"?>
<!-- Created with sK1/UniConvertor (http://sk1project.org/) -->
<svg xmlns="http://www.w3.org/2000/svg" xmlns:xlink="http://www.w3.org/1999/xlink"
  width="512pt" height="512pt" viewBox="0 0 512 512"
  fill-rule="evenodd">
<g>
<g>
<path style="stroke:none; fill:#000000" d="M 203 2.79999C 199.3 5.19998 188.6 19.2 145 78.8L 91.5 151.8L 52.4 152.2L 13.4 152.5L 9.3 155.2C 6.9 156.8 4.4 159.6 3.1 162.2C 1.1 166.5 0.999997 167.8 0.999997 212C 0.999997 256.2 1.1 257.5 3.1 261.8C 4.4 264.4 6.9 267.2 9.3 268.8C 12.9 271.2 14.5 271.5 23.6 271.8L 33.9 272.2L 34.5 276.3C 34.8 278.6 39.5 317.9 45 363.7C 50.5 409.4 55.5 449 56.1 451.7C 62.6 477.7 82.3 498.9 108.8 508.4L 117.5 511.5L 257.5 511.5L 397.5 511.5L 406.9 508.2C 432.8 499.2 451.1 480.1 458.4 454.6C 464.2 434.6 460 422.5 445.8 419C 437.2 416.8 427.1 421 423.3 428.3C 422.4 430.1 421.1 434.3 420.3 437.8C 418.4 446.9 414.4 454.3 408.3 460.1C 401.6 466.5 393.9 470 384.2 471.2C 379.8 471.7 323.5 472 252 471.8L 127.5 471.5L 121.8 469.2C 108.9 464 100.7 455.6 97.1 444.1C 95.7 439.5 92.1 412.5 85.5 357C 80.3 312.7 75.7 275.5 75.5 274.3L 75 272L 231.2 272L 387.4 272L 391.8 269.9C 394.4 268.6 397.2 266.1 398.8 263.7C 401.1 260.2 401.5 258.6 401.5 252C 401.5 245.4 401.1 243.8 398.8 240.3C 397.2 237.9 394.4 235.4 391.8 234.1L 387.4 232L 214.2 232L 41 232L 41 212L 41 192L 257 192L 473 192L 473 212L 473 232L 464.7 232C 454.2 232 448.9 234.4 444.8 241.1C 442.2 245.3 441.8 247.6 436.4 295.5C 430.2 350.1 430.2 350.7 435.5 357.6C 440.7 364.5 452.1 366.9 460.6 363.1C 465.1 361 469.6 355.9 470.9 351.3C 471.4 349.7 473.7 331.2 476.1 310.2L 480.4 272L 489.4 272C 500.1 272 505.7 269.8 509.5 264.2L 512 260.5L 512 212L 512 163.5L 509.5 159.8C 508.2 157.8 505.1 155.3 502.7 154.1C 498.5 152.1 496.9 152 460.9 152L 423.5 152L 377.5 89.2999C 310.1 -2.50012 315.4 4.3999 310.3 1.8999C 306.8 0.19989 304.6 -0.100098 299.6 0.19989C 291.7 0.69989 286.1 4.19989 283 10.3999C 280.6 15.3999 280.3 23.4999 282.4 28.2999C 283.1 30.0999 303.6 58.4999 327.9 91.4999L 372 151.5L 257.8 151.8C 195 151.9 143.5 151.8 143.3 151.6C 143.1 151.4 162.3 124.8 186.1 92.3999C 209.9 60.0999 230.4 31.7999 231.6 29.5999C 236.4 21.2999 233.8 9.99988 225.7 3.59988C 222.4 0.899872 220.9 0.499878 214.7 0.19989C 208.1 -0.100098 207.1 0.0999756 203 2.79999z"/>
<path style="stroke:none; fill:#000000" d="M 167.2 314.1C 164.7 315.4 161.7 318 160.2 320.3L 157.5 324.4L 157.2 370.8C 156.9 416.6 157 417.3 159.1 421.7C 160.4 424.4 162.8 427.2 165.3 428.8C 168.8 431.1 170.4 431.5 177 431.5C 183.6 431.5 185.2 431.1 188.7 428.8C 191.1 427.2 193.6 424.4 194.9 421.8C 196.9 417.5 197 416.2 197 372C 197 327.8 196.9 326.5 194.9 322.2C 191.8 315.8 186.4 312.6 178.1 312.2C 172.8 312 170.6 312.3 167.2 314.1z"/>
<path style="stroke:none; fill:#000000" d="M 247.2 314.1C 244.7 315.4 241.7 318 240.2 320.3L 237.5 324.4L 237.2 370.8C 236.9 416.6 237 417.3 239.1 421.7C 240.4 424.4 242.8 427.2 245.3 428.8C 248.8 431.1 250.4 431.5 257 431.5C 263.6 431.5 265.2 431.1 268.7 428.8C 271.1 427.2 273.6 424.4 274.9 421.8C 276.9 417.5 277 416.2 277 372C 277 327.8 276.9 326.5 274.9 322.2C 271.8 315.8 266.4 312.6 258.1 312.2C 252.8 312 250.6 312.3 247.2 314.1z"/>
<path style="stroke:none; fill:#000000" d="M 327.2 314.1C 324.7 315.4 321.7 318 320.2 320.3L 317.5 324.4L 317.2 370.8C 316.9 416.6 317 417.3 319.1 421.7C 320.4 424.4 322.8 427.2 325.3 428.8C 328.8 431.1 330.4 431.5 337 431.5C 343.6 431.5 345.2 431.1 348.7 428.8C 351.1 427.2 353.6 424.4 354.9 421.8C 356.9 417.5 357 416.2 357 372C 357 327.8 356.9 326.5 354.9 322.2C 351.8 315.8 346.4 312.6 338.1 312.2C 332.8 312 330.6 312.3 327.2 314.1z"/>
</g>
</g>
</svg>